<?xml version="1.0" standalone="no"?>
<!DOCTYPE svg PUBLIC "-//W3C//DTD SVG 20010904//EN"
 "http://www.w3.org/TR/2001/REC-SVG-20010904/DTD/svg10.dtd">
<svg version="1.0" xmlns="http://www.w3.org/2000/svg"
 width="90.000000pt" height="49.000000pt" viewBox="0 0 90.000000 49.000000"
 preserveAspectRatio="xMidYMid meet">

<g transform="translate(0.000000,49.000000) scale(0.100000,-0.100000)"
fill="#000000" stroke="none">
<path d="M292 453 c-10 -4 -10 -9 3 -23 14 -16 11 -32 -50 -203 -36 -102 -65
-191 -65 -196 0 -6 17 -11 38 -11 37 0 39 2 53 48 l15 47 79 0 79 0 15 -48
c14 -45 16 -47 53 -47 24 0 38 5 38 13 1 21 -143 412 -154 419 -12 9 -84 9
-104 1z m102 -194 c10 -33 15 -63 13 -65 -3 -3 -25 -4 -50 -2 l-45 3 26 62
c15 35 30 63 33 63 4 0 14 -27 23 -61z"/>
<path d="M42 238 l3 -213 38 -3 37 -3 0 215 0 216 -40 0 -40 0 2 -212z"/>
<path d="M550 416 l0 -35 58 -3 57 -3 3 -178 2 -177 35 0 35 0 0 180 0 180 61
0 60 0 -3 33 -3 32 -152 3 -153 3 0 -35z"/>
</g>
</svg>
